<svg xmlns="http://www.w3.org/2000/svg" version="1.1" xmlns:xlink="http://www.w3.org/1999/xlink" xmlns:svgjs="http://svgjs.dev/svgjs" width="2000" height="691" viewBox="0 0 2000 691"><g transform="matrix(1,0,0,1,-1.2121212121212466,-0.12338747496283986)"><svg viewBox="0 0 396 137" data-background-color="#ffffff" preserveAspectRatio="xMidYMid meet" height="691" width="2000" xmlns="http://www.w3.org/2000/svg" xmlns:xlink="http://www.w3.org/1999/xlink"><g id="tight-bounds" transform="matrix(1,0,0,1,0.2400000000000091,0.024463218625044192)"><svg viewBox="0 0 395.52 136.9510735627499" height="136.9510735627499" width="395.52"><g><svg viewBox="0 0 705.9272263601724 244.43135999999998" height="136.9510735627499" width="395.52"><g transform="matrix(1,0,0,1,310.40722636017244,66.32192852998824)"><svg viewBox="0 0 395.52 111.78750294002351" height="111.78750294002351" width="395.52"><g id="textblocktransform"><svg viewBox="0 0 395.52 111.78750294002351" height="111.78750294002351" width="395.52" id="textblock"><g><svg viewBox="0 0 395.52 111.78750294002351" height="111.78750294002351" width="395.52"><g transform="matrix(1,0,0,1,0,0)"><svg width="395.52" viewBox="1.25 -35.55 127.53999999999999 36.05" height="111.78750294002351" data-palette-color="#ff0000"><path d="M32.25-34.05L29.5-34.05 29.5 0 22.5 0 5.35-32.35 5.35-0.95 8.1-0.95 8.1 0 1.25 0 1.25-0.95 4-0.95 4-34.05 1.25-34.05 1.25-35 15.05-35 28.15-9.9 28.15-34.05 25.4-34.05 25.4-35 32.25-35 32.25-34.05ZM58.05-15.45L58.05-15.45 58.05-19.15Q58.05-28.3 57.15-30.7L57.15-30.7Q56.15-33.45 54.3-34.1L54.3-34.1Q53.25-34.5 51.75-34.5 50.25-34.5 49.17-34.1 48.1-33.7 47.4-32.7 46.7-31.7 46.27-30.6 45.85-29.5 45.6-27.5L45.6-27.5Q45.3-24.6 45.3-18.95L45.3-18.95 45.3-15.35Q45.3-9.25 45.77-6.68 46.25-4.1 46.95-3L46.95-3Q48.5-0.55 51.75-0.55L51.75-0.55Q55.7-0.55 56.87-3.88 58.05-7.2 58.05-15.45ZM51.65 0.5Q43.3 0.5 39.17-4.03 35.05-8.55 35.05-17.13 35.05-25.7 39.47-30.63 43.9-35.55 52-35.55 60.1-35.55 64.22-30.88 68.35-26.2 68.35-17.6 68.35-9 64.17-4.25 60 0.5 51.65 0.5ZM80.75-34.05L89.15-9.05 97.85-34.05 93.95-34.05 93.95-35 101.6-35 101.6-34.05 99.25-34.05 87.2 0.5 83 0.5 70.25-34.05 67.95-34.05 67.95-35 84.3-35 84.3-34.05 80.75-34.05ZM112.44-0.95L115.99-0.95 112.34-11.75 102.44-11.75 98.59-0.95 102.34-0.95 102.34 0 94.69 0 94.69-0.95 97.04-0.95 109.79-35.3 113.89-35.3 126.49-0.95 128.79-0.95 128.79 0 112.44 0 112.44-0.95ZM111.94-12.85L107.59-25.95 102.89-12.85 111.94-12.85Z" opacity="1" transform="matrix(1,0,0,1,0,0)" fill="#ff0000" class="wordmark-text-0" data-fill-palette-color="primary" id="text-0"></path></svg></g></svg></g></svg></g></svg></g><g><svg viewBox="0 0 244.43135999999998 244.43135999999998" height="244.43135999999998" width="244.43135999999998"><g><svg viewBox="0 0 244.43135999999998 244.43135999999998" height="244.43135999999998" width="244.43135999999998"><g transform="matrix(1,0,0,1,64.60265593644992,64.61748478144347)"><svg viewBox="0 0 115.22604812710014 115.19639043711307" height="115.19639043711307" width="115.22604812710014"><g><svg xmlns="http://www.w3.org/2000/svg" xmlns:xlink="http://www.w3.org/1999/xlink" xml:space="preserve" version="1.1" style="shape-rendering:geometricPrecision;text-rendering:geometricPrecision;image-rendering:optimizeQuality;" viewBox="0.03368826256821533 0.11140648697105143 301.9508218374644 301.8731036130615" x="0" y="0" fill-rule="evenodd" clip-rule="evenodd" height="115.19639043711307" width="115.22604812710014" class="icon-cg-0" data-fill-palette-color="accent" id="cg-0"><g fill="#ff0000" data-fill-palette-color="accent"><path class="" d="M219 101l57 56c79 79-40 198-119 119l-56-56c-79-79 40-198 118-119z m-100-33c8 3 12-10 4-12-41-11-78 26-67 67 2 8 15 4 12-4-8-30 20-59 51-51z m14-52c8 2 12-10 4-12-82-22-155 53-133 133 2 8 14 4 12-4-19-70 46-136 117-117z m-7 26c8 2 12-11 4-13-62-16-117 41-101 101 2 8 15 5 13-3-14-51 32-99 84-85z m-14 64c28-26 72-25 100 3l9 9-36 37-3-3c-7-7-18-8-26-3l-44-43z m65 51l21 21c12 13-7 32-20 20l-21-21c-12-13 7-32 20-20z m-59 64l-9-9c-28-28-29-72-3-100l43 44c-5 8-4 19 3 26l3 3-37 36z" fill="#ff0000" data-fill-palette-color="accent"></path></g></svg></g></svg></g><g id="text-0"><path d="M11.819 65.312l-0.974 2.389 29.607 12.077-2.482 6.085-34.212 3.432 27.304 11.138 0.974-2.389 0.828 0.337-2.429 5.954-0.827-0.338 0.974-2.389-28.78-11.739-0.974 2.389-0.828-0.338 4.891-11.992 26.476-2.485-21.002-8.567-0.974 2.389-0.828-0.338 2.428-5.953z" fill="#ff0000" data-fill-palette-color="accent"></path><path d="M87.105 24.213v0l-1.396-3.181c-2.301-5.247-4.011-8.445-5.129-9.596v0c-1.268-1.322-2.513-1.937-3.737-1.844v0c-0.702 0.034-1.484 0.241-2.346 0.619-0.856 0.375-1.543 0.814-2.063 1.315-0.513 0.499-0.846 1.122-0.999 1.869-0.153 0.747-0.212 1.49-0.176 2.229 0.036 0.739 0.234 1.713 0.594 2.922v0c0.555 1.738 1.543 4.226 2.962 7.463v0l1.359 3.098c1.534 3.498 2.761 5.925 3.681 7.281 0.92 1.356 1.721 2.262 2.401 2.718v0c1.501 1.013 3.182 1.111 5.043 0.295v0c2.27-0.995 3.322-2.592 3.157-4.789-0.162-2.207-1.279-5.673-3.351-10.399zM87.611 40.34c-4.788 2.1-8.931 2.371-12.431 0.816-3.5-1.556-6.328-4.793-8.484-9.711-2.157-4.918-2.586-9.344-1.287-13.278 1.299-3.934 4.268-6.918 8.906-8.953 4.645-2.037 8.739-2.236 12.284-0.595 3.538 1.643 6.388 4.929 8.55 9.859 2.162 4.93 2.643 9.281 1.443 13.054-1.2 3.772-4.194 6.708-8.981 8.808z" fill="#ff0000" data-fill-palette-color="accent"></path><path d="M165.992 7.8l-0.965 24.746 15.976-19.039-3.428-1.303 0.318-0.836 6.722 2.556-0.318 0.835-2.069-0.787-22.107 26.304-3.684-1.4 0.336-34.582-2.013-0.765 0.318-0.835 14.346 5.454-0.318 0.836z" fill="#ff0000" data-fill-palette-color="accent"></path><path d="M208.92 82.837l1.596 2.924 7.253-7.871-4.454-8.158-10.63 1.684 1.689 3.094-0.785 0.428-3.441-6.303 0.784-0.429 1.057 1.935 34.045-4.942 1.845 3.379-22.642 25.831 1.037 1.899-0.785 0.428-7.354-13.471zM218.498 77.064l8.84-9.479-12.909 2.025z" fill="#ff0000" data-fill-palette-color="accent"></path><path d="M50.865 177.883l-0.995-2.424-30.042 12.33-2.537-6.183 22.329-26.842-27.703 11.37 0.996 2.424-0.837 0.343-2.48-6.042 0.837-0.343 0.999 2.434 29.205-11.987-0.999-2.434 0.836-0.343 4.999 12.178-17.405 20.649 21.313-8.747-0.996-2.425 0.837-0.343 2.48 6.042z" fill="#ff0000" data-fill-palette-color="accent"></path><path d="M89.973 228.318v0l1.414-3.228c2.334-5.328 3.543-8.806 3.627-10.433v0c0.118-1.856-0.275-3.211-1.18-4.065v0c-0.514-0.498-1.208-0.939-2.082-1.322-0.868-0.38-1.666-0.593-2.393-0.638-0.73-0.039-1.427 0.144-2.092 0.547-0.665 0.404-1.261 0.871-1.789 1.401-0.528 0.53-1.119 1.347-1.772 2.451v0c-0.913 1.611-2.09 4.063-3.533 7.357v0l-1.378 3.145c-1.557 3.554-2.526 6.139-2.908 7.753-0.378 1.623-0.503 2.844-0.373 3.662v0c0.275 1.821 1.358 3.145 3.249 3.974v0c2.301 1.008 4.22 0.695 5.757-0.939 1.53-1.636 3.348-4.858 5.453-9.665zM78.276 239.806c-4.863-2.13-7.917-5.039-9.163-8.726-1.252-3.69-0.784-8.032 1.403-13.025 2.187-4.993 5.198-8.358 9.034-10.094 3.832-1.744 8.108-1.583 12.828 0.485 4.714 2.065 7.678 4.986 8.893 8.763 1.208 3.774 0.714 8.168-1.482 13.18-2.193 5.006-5.11 8.359-8.753 10.06-3.643 1.701-7.896 1.487-12.76-0.643z" fill="#ff0000" data-fill-palette-color="accent"></path><path d="M150.936 211.683l15.94 19.454-0.695-25.23-3.476 1.317-0.32-0.845 6.82-2.584 0.32 0.846-2.09 0.791 0.92 34.888-3.742 1.418-23.043-26.507-2.052 0.777-0.32-0.846 14.581-5.523 0.32 0.845z" fill="#ff0000" data-fill-palette-color="accent"></path><path d="M226.872 186.114l1.632-2.963-10.702-1.918-4.554 8.265 7.248 8.191 1.725-3.132 0.792 0.436-3.519 6.388-0.792-0.436 1.083-1.966-22.826-26.456 1.887-3.426 34.491 5.282 1.058-1.922 0.792 0.436-7.523 13.657zM216.704 181.057l-12.948-2.389 8.782 9.952z" fill="#ff0000" data-fill-palette-color="accent"></path><path d="M3.498 129.328c0-7.042 5.709-12.75 12.751-12.75 7.042 0 12.75 5.709 12.75 12.75 0 7.042-5.709 12.75-12.75 12.75-7.042 0-12.75-5.709-12.751-12.75z" fill="#ff0000" data-fill-palette-color="accent"></path><path d="M218.931 129.328c0-7.042 5.709-12.75 12.75-12.75 7.042 0 12.75 5.709 12.75 12.75 0 7.042-5.709 12.75-12.75 12.75-7.042 0-12.75-5.709-12.75-12.75z" fill="#ff0000" data-fill-palette-color="accent"></path></g><g id="text-1"></g></svg></g></svg></g></svg></g><defs></defs></svg><rect width="395.52" height="136.9510735627499" fill="none" stroke="none" visibility="hidden"></rect></g></svg></g></svg>