<svg xmlns="http://www.w3.org/2000/svg" version="1.1" xmlns:xlink="http://www.w3.org/1999/xlink" xmlns:svgjs="http://svgjs.dev/svgjs" width="2000" height="1250" viewBox="0 0 2000 1250"><g transform="matrix(1,0,0,1,0,0)"><svg viewBox="0 0 512 320" data-background-color="#ffffff" preserveAspectRatio="xMidYMid meet" height="1250" width="2000" xmlns="http://www.w3.org/2000/svg" xmlns:xlink="http://www.w3.org/1999/xlink"><g id="tight-bounds" transform="matrix(1,0,0,1,0,0)"><svg viewBox="0 0 512 320" height="320" width="512"><g><svg></svg></g><g><svg viewBox="0 0 512 320" height="320" width="512"><g><path transform="translate(256,160) scale(160,160)" d="M-1 0c0-0.552 0.448-1 1-1 0.552 0 1 0.448 1 1 0 0.552-0.448 1-1 1-0.552 0-1-0.448-1-1z" fill="#ff0404" fill-rule="nonzero" stroke="none" stroke-width="1" stroke-linecap="butt" stroke-linejoin="miter" stroke-miterlimit="10" stroke-dasharray="" stroke-dashoffset="0" font-family="none" font-weight="none" font-size="none" text-anchor="none" style="mix-blend-mode: normal" data-fill-palette-color="tertiary"></path></g><g transform="matrix(1,0,0,1,116,20)"><svg viewBox="0 0 280 280" height="280" width="280"><g><svg viewBox="0 0 280 280" height="280" width="280"><g><svg viewBox="0 0 280 280" height="280" width="280"><g id="textblocktransform"><svg viewBox="0 0 280 280" height="280" width="280" id="textblock"><g><svg viewBox="0 0 280 280" height="280" width="280"><g transform="matrix(1,0,0,1,74.00336708925556,74.02035376640775)"><svg viewBox="0 0 131.99326582148888 131.9592924671845" height="131.9592924671845" width="131.99326582148888"><g id="icon-0"><svg xmlns="http://www.w3.org/2000/svg" xmlns:xlink="http://www.w3.org/1999/xlink" xml:space="preserve" version="1.1" style="shape-rendering:geometricPrecision;text-rendering:geometricPrecision;image-rendering:optimizeQuality;" viewBox="0.03368826256821533 0.11140648697105143 301.9508218374644 301.8731036130615" x="0" y="0" fill-rule="evenodd" clip-rule="evenodd" height="131.9592924671845" width="131.99326582148888" class="icon-xg-0" data-fill-palette-color="quaternary" id="xg-0"><g fill="#ffffff" data-fill-palette-color="quaternary"><path class="" d="M219 101l57 56c79 79-40 198-119 119l-56-56c-79-79 40-198 118-119z m-100-33c8 3 12-10 4-12-41-11-78 26-67 67 2 8 15 4 12-4-8-30 20-59 51-51z m14-52c8 2 12-10 4-12-82-22-155 53-133 133 2 8 14 4 12-4-19-70 46-136 117-117z m-7 26c8 2 12-11 4-13-62-16-117 41-101 101 2 8 15 5 13-3-14-51 32-99 84-85z m-14 64c28-26 72-25 100 3l9 9-36 37-3-3c-7-7-18-8-26-3l-44-43z m65 51l21 21c12 13-7 32-20 20l-21-21c-12-13 7-32 20-20z m-59 64l-9-9c-28-28-29-72-3-100l43 44c-5 8-4 19 3 26l3 3-37 36z" fill="#ffffff" data-fill-palette-color="quaternary"></path></g></svg></g></svg></g><g id="text-0"><path d="M28.261 106.762l-1.449 3.907-26.812-9.942 2.375-6.406 21.303-5.074 4.232-0.576 0.135-0.364-4.081-1.241-16.614-6.16 1.445-3.898 26.812 9.942-1.58 4.261-25.525 6.123-4.02 0.47-0.135 0.364 3.987 1.205z" fill="#ffffff" data-fill-palette-color="quaternary"></path><path d="M96.952 30.795v0c1.303-0.537 2.372-1.294 3.207-2.271 0.835-0.977 1.438-2.087 1.81-3.33 0.365-1.24 0.495-2.571 0.388-3.992-0.107-1.421-0.452-2.84-1.035-4.257v0c-0.62-1.505-1.421-2.806-2.403-3.903-0.973-1.094-2.051-1.95-3.233-2.568-1.186-0.609-2.429-0.955-3.73-1.037-1.301-0.083-2.58 0.135-3.84 0.653v0c-1.316 0.542-2.388 1.308-3.218 2.298-0.829 0.99-1.421 2.11-1.775 3.359-0.36 1.253-0.484 2.589-0.371 4.008 0.113 1.419 0.459 2.83 1.037 4.234v0c0.62 1.505 1.416 2.804 2.39 3.898 0.964 1.09 2.034 1.935 3.208 2.533 1.171 0.608 2.406 0.953 3.707 1.036 1.301 0.083 2.587-0.138 3.858-0.661zM97.645 34.22v0c-1.165 0.48-2.35 0.81-3.557 0.99-1.207 0.18-2.394 0.213-3.561 0.097-1.167-0.116-2.298-0.386-3.394-0.811-1.093-0.419-2.124-0.992-3.093-1.719-0.97-0.727-1.847-1.607-2.633-2.638-0.794-1.035-1.466-2.22-2.016-3.555v0c-0.57-1.385-0.944-2.766-1.121-4.144-0.171-1.38-0.169-2.717 0.004-4.011 0.18-1.297 0.524-2.546 1.03-3.749 0.5-1.2 1.146-2.305 1.937-3.315 0.782-1.014 1.699-1.926 2.751-2.735 1.048-0.8 2.207-1.461 3.479-1.985v0c1.725-0.71 3.484-1.096 5.277-1.157 1.802-0.058 3.522 0.228 5.158 0.858 1.636 0.629 3.133 1.6 4.491 2.911 1.357 1.311 2.455 2.984 3.292 5.017v0c0.565 1.372 0.94 2.746 1.123 4.121 0.177 1.378 0.18 2.717 0.008 4.017-0.165 1.298-0.494 2.545-0.988 3.743-0.494 1.197-1.132 2.303-1.914 3.317-0.786 1.023-1.705 1.939-2.756 2.748-1.054 0.802-2.226 1.469-3.517 2z" fill="#ffffff" data-fill-palette-color="quaternary"></path><path d="M193.271 29.826l14.685-16.495 4.161 1.828-20.897 22.053-4.984-2.189 2.112-30.305 4.806 2.111-2.211 21.974-0.622 4.133 0.346 0.152z" fill="#ffffff" data-fill-palette-color="quaternary"></path><path d="M252.398 106.519l5.867-5.089-4.408-10.577-7.73 0.621-1.666-3.997 30.293-1.649 2.11 5.062-22.498 20.352zM257.321 90.537l3.595 8.626 8.458-7.21 3.358-2.561-0.149-0.358-4.175 0.6z" fill="#ffffff" data-fill-palette-color="quaternary"></path><path d="M8.779 188.891l-1.468-3.943 27.163-10.112 2.416 6.489-12.998 17.981-2.867 3.247 0.139 0.373 3.95-1.743 16.836-6.267 1.468 3.943-27.163 10.112-1.607-4.316 15.542-21.599 2.778-3.017-0.139-0.373-3.854 1.707z" fill="#ffffff" data-fill-palette-color="quaternary"></path><path d="M91.48 271.133v0c1.322 0.544 2.632 0.761 3.927 0.653 1.305-0.112 2.532-0.483 3.682-1.114 1.15-0.631 2.193-1.495 3.129-2.59 0.932-1.104 1.693-2.374 2.284-3.809v0c0.626-1.524 0.981-3.031 1.063-4.521 0.074-1.486-0.097-2.87-0.512-4.152-0.415-1.282-1.059-2.419-1.933-3.412-0.876-0.986-1.956-1.743-3.24-2.27v0c-1.329-0.546-2.644-0.759-3.945-0.639-1.307 0.118-2.535 0.5-3.684 1.147-1.152 0.653-2.192 1.528-3.122 2.625-0.932 1.104-1.691 2.367-2.276 3.791v0c-0.626 1.524-0.98 3.028-1.059 4.511-0.077 1.477 0.088 2.848 0.495 4.113 0.414 1.267 1.061 2.398 1.941 3.392 0.876 0.986 1.959 1.744 3.25 2.275zM89.532 274.097v0c-1.178-0.484-2.267-1.094-3.267-1.829-0.997-0.726-1.873-1.55-2.628-2.471-0.758-0.915-1.381-1.915-1.87-2.999-0.489-1.084-0.823-2.234-1.001-3.448-0.178-1.214-0.183-2.475-0.013-3.782 0.163-1.31 0.523-2.641 1.079-3.995v0c0.577-1.404 1.297-2.662 2.158-3.773 0.858-1.12 1.814-2.085 2.868-2.895 1.052-0.804 2.187-1.46 3.404-1.969 1.221-0.499 2.474-0.834 3.759-1.005 1.291-0.169 2.601-0.167 3.93 0.003 1.331 0.164 2.642 0.512 3.933 1.042v0c1.744 0.717 3.285 1.696 4.622 2.938 1.337 1.242 2.373 2.672 3.106 4.291 0.724 1.623 1.11 3.39 1.156 5.301 0.037 1.915-0.367 3.902-1.213 5.961v0c-0.572 1.392-1.284 2.649-2.136 3.771-0.849 1.116-1.799 2.084-2.849 2.903-1.048 0.813-2.178 1.475-3.389 1.985-1.202 0.507-2.45 0.848-3.744 1.023-1.294 0.175-2.605 0.177-3.934 0.006-1.337-0.167-2.661-0.52-3.971-1.058z" fill="#ffffff" data-fill-palette-color="quaternary"></path><path d="M195.489 263.541l-2.231-22.263 4.218-1.851 2.118 30.722-5.05 2.217-21.158-22.367 4.872-2.139 14.875 16.716 2.665 3.302 0.336-0.147z" fill="#ffffff" data-fill-palette-color="quaternary"></path><path d="M271.572 189.927l-7.85-0.609-4.487 10.71 5.956 5.13-1.697 4.051-22.766-20.667 2.147-5.124 30.702 1.724zM256.533 197.755l3.663-8.741-11.221-0.97-4.228-0.586-0.153 0.367 3.395 2.574z" fill="#ffffff" data-fill-palette-color="quaternary"></path><path d="M0.488 144.153c0-6.115 4.957-11.072 11.072-11.072 6.115 0 11.072 4.957 11.072 11.072 0 6.115-4.957 11.072-11.072 11.072-6.115 0-11.072-4.957-11.072-11.072z" fill="#ffffff" data-fill-palette-color="quaternary"></path><path d="M257.856 144.153c0-6.115 4.957-11.072 11.072-11.072 6.115 0 11.072 4.957 11.072 11.072 0 6.115-4.957 11.072-11.072 11.072-6.115 0-11.072-4.957-11.072-11.072z" fill="#ffffff" data-fill-palette-color="quaternary"></path></g><g id="text-1"></g></svg></g></svg></g></svg></g></svg></g></svg></g></svg></g><defs></defs></svg><rect width="512" height="320" fill="none" stroke="none" visibility="hidden"></rect></g></svg></g></svg>