<svg xmlns="http://www.w3.org/2000/svg" version="1.1" xmlns:xlink="http://www.w3.org/1999/xlink" xmlns:svgjs="http://svgjs.dev/svgjs" width="2000" height="494" viewBox="0 0 2000 494"><g transform="matrix(1,0,0,1,-1.2121212121212466,-0.8618551282899318)"><svg viewBox="0 0 396 98" data-background-color="#ff0404" preserveAspectRatio="xMidYMid meet" height="494" width="2000" xmlns="http://www.w3.org/2000/svg" xmlns:xlink="http://www.w3.org/1999/xlink"><g id="tight-bounds" transform="matrix(1,0,0,1,0.2400000000000091,0.17097530885104106)"><svg viewBox="0 0 395.52 97.6580493822979" height="97.6580493822979" width="395.52"><g><svg viewBox="0 0 556.4057430360017 137.38243206412827" height="97.6580493822979" width="395.52"><g transform="matrix(1,0,0,1,160.8857430360017,18.987007615230468)"><svg viewBox="0 0 395.52000000000004 99.40841683366733" height="99.40841683366733" width="395.52000000000004"><g id="textblocktransform"><svg viewBox="0 0 395.52000000000004 99.40841683366733" height="99.40841683366733" width="395.52000000000004" id="textblock"><g><svg viewBox="0 0 395.52000000000004 99.40841683366733" height="99.40841683366733" width="395.52000000000004"><g transform="matrix(1,0,0,1,0,0)"><svg width="395.52000000000004" viewBox="4.83 -36.25 146.19 36.74" height="99.40841683366733" data-palette-color="#ffffff"><path d="M10.03 0L4.83 0 4.83-35.77 13.38-35.77 28.59-12.99 31.1-8.28 31.59-8.28 31.27-13.6 31.27-35.77 36.47-35.77 36.47 0 30.79 0 12.5-27.27 10.21-31.79 9.72-31.79 10.03-26.59 10.03 0ZM62.96-3.81L62.96-3.81Q65.6-3.81 67.75-4.91 69.89-6.01 71.42-7.9 72.95-9.79 73.78-12.33 74.61-14.87 74.61-17.75L74.61-17.75Q74.61-20.8 73.69-23.4 72.78-26 71.16-27.91 69.55-29.81 67.36-30.88 65.16-31.96 62.6-31.96L62.6-31.96Q59.93-31.96 57.79-30.83 55.64-29.71 54.12-27.8 52.61-25.88 51.79-23.34 50.97-20.8 50.97-17.94L50.97-17.94Q50.97-14.89 51.88-12.3 52.78-9.72 54.38-7.84 55.98-5.96 58.18-4.88 60.37-3.81 62.96-3.81ZM62.13 0.49L62.13 0.49Q59.76 0.49 57.54-0.06 55.32-0.61 53.38-1.65 51.44-2.69 49.84-4.2 48.24-5.71 47.08-7.67 45.92-9.62 45.29-11.98 44.65-14.33 44.65-17.04L44.65-17.04Q44.65-19.85 45.33-22.36 46.02-24.88 47.25-27 48.48-29.13 50.22-30.85 51.95-32.57 54.04-33.76 56.13-34.96 58.52-35.61 60.91-36.25 63.5-36.25L63.5-36.25Q66.99-36.25 70.15-35.07 73.31-33.89 75.71-31.63 78.1-29.37 79.51-26.12 80.93-22.88 80.93-18.75L80.93-18.75Q80.93-15.97 80.26-13.45 79.59-10.94 78.37-8.8 77.15-6.67 75.44-4.94 73.73-3.22 71.64-2.01 69.55-0.81 67.15-0.16 64.74 0.49 62.13 0.49ZM103.34-9.5L111.86-35.77 117.55-35.77 104.71 0 97.9 0 85.08-35.77 91.65-35.77 100.17-9.5 101.53-4.44 102-4.44 103.34-9.5ZM144.62 0L141.57-9.23 127.24-9.23 124.24 0 118.82 0 131.49-35.77 138.35-35.77 151.02 0 144.62 0ZM128.53-13.38L140.23-13.38 135.98-26.61 134.64-31.71 134.15-31.71 132.83-26.61 128.53-13.38Z" opacity="1" transform="matrix(1,0,0,1,0,0)" fill="#ffffff" class="wordmark-text-0" data-fill-palette-color="primary" id="text-0"></path></svg></g></svg></g></svg></g></svg></g><g><svg viewBox="0 0 137.41780162357685 137.38243206412827" height="137.38243206412827" width="137.41780162357685"><g><svg xmlns="http://www.w3.org/2000/svg" xmlns:xlink="http://www.w3.org/1999/xlink" xml:space="preserve" version="1.1" style="shape-rendering:geometricPrecision;text-rendering:geometricPrecision;image-rendering:optimizeQuality;" viewBox="0.03368826256821533 0.11140648697105143 301.9508218374644 301.8731036130615" x="0" y="0" fill-rule="evenodd" clip-rule="evenodd" height="137.38243206412827" width="137.41780162357685" class="icon-icon-0" data-fill-palette-color="accent" id="icon-0"><g fill="#ffffff" data-fill-palette-color="accent"><path class="" d="M219 101l57 56c79 79-40 198-119 119l-56-56c-79-79 40-198 118-119z m-100-33c8 3 12-10 4-12-41-11-78 26-67 67 2 8 15 4 12-4-8-30 20-59 51-51z m14-52c8 2 12-10 4-12-82-22-155 53-133 133 2 8 14 4 12-4-19-70 46-136 117-117z m-7 26c8 2 12-11 4-13-62-16-117 41-101 101 2 8 15 5 13-3-14-51 32-99 84-85z m-14 64c28-26 72-25 100 3l9 9-36 37-3-3c-7-7-18-8-26-3l-44-43z m65 51l21 21c12 13-7 32-20 20l-21-21c-12-13 7-32 20-20z m-59 64l-9-9c-28-28-29-72-3-100l43 44c-5 8-4 19 3 26l3 3-37 36z" fill="#ffffff" data-fill-palette-color="accent"></path></g></svg></g></svg></g></svg></g><defs></defs></svg><rect width="395.52" height="97.6580493822979" fill="none" stroke="none" visibility="hidden"></rect></g></svg></g></svg>