<svg xmlns="http://www.w3.org/2000/svg" version="1.1" xmlns:xlink="http://www.w3.org/1999/xlink" xmlns:svgjs="http://svgjs.dev/svgjs" width="2000" height="2250" viewBox="0 0 2000 2250"><g transform="matrix(1,0,0,1,0.00003558488856469921,0)"><svg viewBox="0 0 320 360" data-background-color="#ffffff" preserveAspectRatio="xMidYMid meet" height="2250" width="2000" xmlns="http://www.w3.org/2000/svg" xmlns:xlink="http://www.w3.org/1999/xlink"><g id="tight-bounds" transform="matrix(1,0,0,1,0.000005693582238563977,0)"><svg viewBox="0 0 320 360" height="360" width="320"><g><svg></svg></g><g><svg viewBox="0 0 320 360" height="360" width="320"><g><path transform="translate(-8.74414,11.24127) scale(3.37517,3.37517)" d="M89.9 29.89c-2.6-3.17-7.52-4.8-12.74-6.52-2.24-0.74-4.55-1.51-6.81-2.44-2.28-0.94-4.52-2.15-6.7-3.31-4.43-2.38-9.01-4.84-13.66-4.84-4.64 0-9.22 2.46-13.65 4.84-2.18 1.17-4.43 2.38-6.71 3.32-2.25 0.93-4.57 1.69-6.81 2.44-5.22 1.73-10.14 3.36-12.74 6.52-3.47 4.23-3.39 10.5-3.31 17.13 0.01 1 0.02 1.99 0.02 2.97 0 0.98-0.01 1.97-0.03 2.97-0.08 6.64-0.16 12.9 3.31 17.14 2.6 3.16 7.52 4.79 12.73 6.52 2.24 0.74 4.55 1.51 6.82 2.44 2.28 0.94 4.52 2.14 6.69 3.31 4.44 2.39 9.02 4.85 13.66 4.85 4.65 0 9.23-2.46 13.66-4.84 2.18-1.17 4.42-2.38 6.7-3.31 2.25-0.93 4.55-1.69 6.78-2.43 5.25-1.74 10.17-3.37 12.77-6.53 3.47-4.23 3.39-10.5 3.31-17.13-0.01-1.01-0.03-2-0.03-2.98 0-0.98 0.01-1.97 0.03-2.96 0.11-6.66 0.19-12.93-3.29-17.16zM93.12 27.25c-4.66-5.68-13.57-7.03-21.18-10.17-6.81-2.8-13.74-8.47-21.94-8.47-8.2 0-15.13 5.67-21.94 8.47-7.62 3.14-16.52 4.49-21.18 10.17-5.06 6.16-4.24 14.85-4.24 22.75 0 7.89-0.82 16.59 4.23 22.75 4.66 5.68 13.57 7.03 21.18 10.17 6.81 2.81 13.74 8.47 21.94 8.47 8.2 0 15.13-5.66 21.94-8.47 7.62-3.14 16.52-4.49 21.18-10.17 5.05-6.16 4.23-14.85 4.23-22.75 0.02-7.9 0.84-16.59-4.22-22.75zM94.4 52.94c0.09 6.88 0.17 13.35-3.58 17.92-2.82 3.43-7.9 5.12-13.28 6.9-2.24 0.74-4.53 1.5-6.73 2.41-2.22 0.91-4.43 2.1-6.57 3.25-4.58 2.46-9.29 4.99-14.24 4.99-4.95 0-9.66-2.53-14.22-4.98-2.15-1.16-4.37-2.35-6.59-3.26-2.23-0.92-4.52-1.68-6.74-2.41-5.39-1.78-10.47-3.47-13.28-6.9-3.74-4.56-3.66-11.04-3.58-17.9 0.01-1 0.03-1.98 0.03-2.96 0-0.98-0.01-1.96-0.02-2.96-0.09-6.86-0.17-13.34 3.58-17.9 2.82-3.43 7.9-5.11 13.28-6.9 2.23-0.74 4.52-1.5 6.74-2.41 2.22-0.92 4.44-2.11 6.59-3.26 4.56-2.45 9.28-4.99 14.22-4.99 4.94 0 9.66 2.53 14.22 4.98 2.15 1.16 4.37 2.35 6.59 3.26 2.22 0.92 4.52 1.67 6.73 2.41 5.38 1.78 10.47 3.47 13.28 6.9 3.75 4.57 3.67 11.04 3.58 17.9-0.01 1.01-0.03 1.99-0.03 2.96 0 0.98 0.01 1.96 0.02 2.95z" fill="#ff0404" fill-rule="nonzero" stroke="none" stroke-width="1" stroke-linecap="butt" stroke-linejoin="miter" stroke-miterlimit="10" stroke-dasharray="" stroke-dashoffset="0" font-family="none" font-weight="none" font-size="none" text-anchor="none" style="mix-blend-mode: normal" data-fill-palette-color="tertiary"></path></g><g transform="matrix(1,0,0,1,64,146.32602976392948)"><svg viewBox="0 0 192 67.34794047214105" height="67.34794047214105" width="192"><g><svg viewBox="0 0 338.27243773584905 118.656" height="67.34794047214105" width="192"><g transform="matrix(1,0,0,1,146.27243773584905,35.93177358490566)"><svg viewBox="0 0 192 46.79245283018868" height="46.79245283018868" width="192"><g id="textblocktransform"><svg viewBox="0 0 192 46.79245283018868" height="46.79245283018868" width="192" id="textblock"><g><svg viewBox="0 0 192 46.79245283018868" height="46.79245283018868" width="192"><g transform="matrix(1,0,0,1,0,0)"><svg width="192" viewBox="0.98 -29.79 124.21 30.28" height="46.79245283018868" data-palette-color="#ffffff"><path d="M22.17-29.3L22.17-28.03 26.32-28.03 26.32-6.15 7.76-29.3 0.98-29.3 0.98-28.03 4.88-28.03 4.88-1.27 0.98-1.27 0.98 0 10.99 0Q10.99-1.07 10.21-1.22L10.21-1.22Q9.96-1.27 9.72-1.27L9.72-1.27 6.84-1.27 6.84-23.88 26.03 0.24 28.27-0.24 28.27-28.03 32.18-28.03 32.18-29.3 22.17-29.3ZM50-29.79L50-29.79Q44.14-29.79 39.94-25.93L39.94-25.93Q35.35-21.68 35.35-14.84L35.35-14.84Q35.35-6.93 40.77-2.64L40.77-2.64Q44.72 0.49 49.85 0.49L49.85 0.49Q55.61 0.49 59.76-3.42L59.76-3.42Q64.4-7.76 64.4-14.65L64.4-14.65Q64.4-22.71 58.79-26.9L58.79-26.9Q54.98-29.79 50-29.79ZM50-0.88L50-0.88Q42.92-0.88 40.92-8.45L40.92-8.45Q40.23-11.13 40.23-14.65L40.23-14.65Q40.23-26.27 47.26-28.13L47.26-28.13Q48.48-28.42 49.85-28.42L49.85-28.42Q59.47-28.32 59.52-14.84L59.52-14.84Q59.52-4.2 53.61-1.61L53.61-1.61Q51.95-0.88 50-0.88ZM82.17 0.24L82.76 0.24 92.82-28.03 95.26-28.03 95.26-29.3 87.06-29.3 87.06-28.03 90.96-28.03 82.81-4.98 73.97-28.03 77.88-28.03 77.88-29.3 66.84-29.3 66.84-28.03 69.77-28.03 79.05-3.37Q80.12-0.49 80.9-0.05L80.9-0.05Q81.39 0.24 82.17 0.24L82.17 0.24ZM114.64 0L125.19 0Q125.19-1.07 124.41-1.22L124.41-1.22Q124.16-1.27 123.92-1.27L123.92-1.27 122.26-1.27 111.08-29.3 109.27-29.3 98.33-1.27 95.26-1.27 95.26 0 103.95 0Q103.95-1.07 103.17-1.22L103.17-1.22Q102.92-1.27 102.68-1.27L102.68-1.27 100.29-1.27 103.95-10.74 114.15-10.74 117.81-1.27 114.64-1.27 114.64 0ZM109.03-23.97L113.62-12.16 104.48-12.16 109.03-23.97Z" opacity="1" transform="matrix(1,0,0,1,0,0)" fill="#ffffff" class="wordmark-text-0" data-fill-palette-color="quaternary" id="text-0"></path></svg></g></svg></g></svg></g></svg></g><g><svg viewBox="0 0 118.656 118.656" height="118.656" width="118.656"><g><svg viewBox="0 0 118.656 118.656" height="118.656" width="118.656"><g transform="matrix(1,0,0,1,31.360512590509675,31.36771105895314)"><svg viewBox="0 0 55.934974818980656 55.920577882093724" height="55.920577882093724" width="55.934974818980656"><g><svg xmlns="http://www.w3.org/2000/svg" xml:space="preserve" fill-rule="evenodd" clip-rule="evenodd" style="shape-rendering:geometricPrecision;text-rendering:geometricPrecision;image-rendering:optimizeQuality" viewBox="0.03368826256821533 0.11140648697105143 301.9508218374644 301.8731036130615" x="0" y="0" height="55.920577882093724" width="55.934974818980656" class="icon-dxe-0" data-fill-palette-color="quaternary" id="dxe-0"><path d="M219 101l57 56c79 79-40 198-119 119l-56-56c-79-79 40-198 118-119M119 68c8 3 12-10 4-12-41-11-78 26-67 67 2 8 15 4 12-4-8-30 20-59 51-51m14-52c8 2 12-10 4-12C55-18-18 57 4 137c2 8 14 4 12-4C-3 63 62-3 133 16m-7 26c8 2 12-11 4-13C68 13 13 70 29 130c2 8 15 5 13-3-14-51 32-99 84-85m-14 64c28-26 72-25 100 3l9 9-36 37-3-3c-7-7-18-8-26-3z m65 51l21 21c12 13-7 32-20 20l-21-21c-12-13 7-32 20-20m-59 64l-9-9c-28-28-29-72-3-100l43 44c-5 8-4 19 3 26l3 3z" fill="#ffffff" data-fill-palette-color="quaternary"></path></svg></g></svg></g><g id="text-0"><path d="M3.77 34.684l0.546 0.225 0.742-1.799 9.445 3.894-13.296 3.895-1.207 2.929 0.546 0.225 0.695-1.685 11.555 4.763-0.695 1.686 0.547 0.225 1.782-4.322c-0.308-0.127-0.53-0.086-0.668 0.121v0c-0.041 0.064-0.077 0.133-0.108 0.209v0l-0.512 1.243-9.766-4.026 13.832-3.993 0.193-1.055-11.998-4.947 0.695-1.686-0.546-0.225z" fill="#ffffff" data-fill-palette-color="quaternary"></path><path d="M37.335 3.125v0c-1.689 0.696-2.907 1.849-3.654 3.458v0c-0.82 1.77-0.825 3.638-0.014 5.603v0c0.94 2.279 2.446 3.714 4.52 4.306v0c1.507 0.429 2.997 0.34 4.473-0.269v0c1.657-0.683 2.851-1.833 3.58-3.448v0c0.822-1.801 0.824-3.693 0.006-5.677v0c-0.955-2.317-2.488-3.745-4.599-4.285v0c-1.443-0.382-2.88-0.278-4.312 0.312zM42.485 15.612v0c-2.04 0.841-3.798 0.292-5.275-1.648v0c-0.513-0.692-0.979-1.546-1.398-2.563v0c-1.377-3.34-1.165-5.693 0.636-7.061v0c0.315-0.233 0.671-0.431 1.066-0.594v0c2.782-1.11 4.977 0.269 6.587 4.137v0c1.263 3.064 1.199 5.32-0.195 6.768v0c-0.389 0.41-0.863 0.731-1.421 0.961z" fill="#ffffff" data-fill-palette-color="quaternary"></path><path d="M79.824 17.306l0.251 0.112 9.67-10.14 1.042 0.465 0.241-0.54-3.497-1.561-0.241 0.539 1.665 0.744-7.868 8.278 0.622-11.513 1.665 0.743 0.241-0.539-4.706-2.102-0.241 0.54 1.246 0.556-0.744 12.285c-0.055 0.957 0.001 1.547 0.169 1.771v0c0.1 0.142 0.262 0.262 0.485 0.362z" fill="#ffffff" data-fill-palette-color="quaternary"></path><path d="M105.285 44.917l1.85 4.558c0.308-0.125 0.439-0.31 0.391-0.554v0c-0.016-0.074-0.037-0.146-0.066-0.215v0l-0.291-0.717 10.163-9.765-0.318-0.784-14.047 0.195-0.541-1.331-0.547 0.222 1.525 3.756c0.308-0.125 0.44-0.307 0.394-0.544v0c-0.018-0.081-0.041-0.156-0.069-0.225v0l-0.418-1.029 4.736-0.086 1.793 4.417-3.452 3.248-0.556-1.368zM114.669 38.271l-4.307 4.068-1.605-3.954z" fill="#ffffff" data-fill-palette-color="quaternary"></path><path d="M20.222 81.745l-0.555 0.23 0.748 1.807-9.526 3.941 6.74-12.247-1.223-2.955-0.555 0.229 0.705 1.704-11.644 4.817-0.705-1.704-0.555 0.23 1.803 4.358c0.314-0.13 0.443-0.315 0.387-0.557v0c-0.01-0.077-0.03-0.153-0.061-0.228v0l-0.518-1.252 9.836-4.069-7.041 12.691 0.612 0.893 12.095-5.004 0.705 1.704 0.555-0.23z" fill="#ffffff" data-fill-palette-color="quaternary"></path><path d="M44.309 103.17v0c-1.702-0.701-3.395-0.745-5.08-0.131v0c-1.841 0.689-3.17 2.025-3.987 4.01v0c-0.944 2.292-0.885 4.387 0.177 6.285v0c0.774 1.384 1.905 2.382 3.393 2.995v0c1.67 0.688 3.342 0.712 5.016 0.072v0c1.87-0.706 3.216-2.058 4.038-4.054v0c0.965-2.342 0.881-4.458-0.249-6.349v0c-0.761-1.29-1.864-2.233-3.308-2.828zM39.126 115.754v0c-2.06-0.848-2.926-2.49-2.598-4.926v0c0.12-0.861 0.389-1.801 0.808-2.818v0c1.391-3.378 3.219-4.917 5.482-4.617v0c0.392 0.066 0.785 0.18 1.18 0.343v0c2.784 1.176 3.375 3.726 1.775 7.649v0c-1.272 3.089-2.92 4.655-4.942 4.696v0c-0.571 0.014-1.14-0.095-1.705-0.327z" fill="#ffffff" data-fill-palette-color="quaternary"></path><path d="M83.876 114.907l0.251-0.112-1.1-14.089 1.051-0.469-0.245-0.548-3.534 1.577 0.245 0.549 1.683-0.752 0.919 11.481-8.23-8.218 1.684-0.751-0.245-0.549-4.744 2.117 0.244 0.549 1.256-0.56 8.723 8.823c0.678 0.686 1.158 1.045 1.44 1.076v0c0.179 0.017 0.38-0.024 0.602-0.124z" fill="#ffffff" data-fill-palette-color="quaternary"></path><path d="M114.278 81.915l1.874-4.604c-0.314-0.128-0.537-0.087-0.666 0.125v0c-0.047 0.061-0.086 0.13-0.117 0.205v0l-0.292 0.717-14.212-0.1-0.323 0.792 10.283 9.752-0.546 1.34 0.557 0.226 1.544-3.792c-0.314-0.128-0.537-0.087-0.666 0.124v0c-0.05 0.068-0.088 0.136-0.117 0.206v0l-0.423 1.038-3.483-3.277 1.814-4.453 4.781 0.088-0.565 1.387zM102.82 80.099l5.975 0.101-1.621 3.981z" fill="#ffffff" data-fill-palette-color="quaternary"></path><path d="M0.951 61.562c0-2.936 2.38-5.315 5.315-5.315 2.936 0 5.315 2.38 5.316 5.315 0 2.936-2.38 5.315-5.316 5.316-2.936 0-5.315-2.38-5.315-5.316z" fill="#ffffff" data-fill-palette-color="quaternary"></path><path d="M108.025 61.562c0-2.936 2.38-5.315 5.316-5.315 2.936 0 5.315 2.38 5.315 5.315 0 2.936-2.38 5.315-5.315 5.316-2.936 0-5.315-2.38-5.316-5.316z" fill="#ffffff" data-fill-palette-color="quaternary"></path></g><g id="text-1"></g></svg></g></svg></g></svg></g></svg></g></svg></g><defs></defs></svg><rect width="320" height="360" fill="none" stroke="none" visibility="hidden"></rect></g></svg></g></svg>